<svg width="108" height="32" viewBox="0 0 108 32" fill="none" xmlns="http://www.w3.org/2000/svg">
<path d="M31.657 10.7142H36.1852C38.6935 10.7142 39.9957 11.7617 39.9957 13.7286V13.8266C40.0315 14.403 39.8629 14.9733 39.5208 15.4338C39.1786 15.8944 38.6855 16.2145 38.1312 16.3361C38.795 16.3956 39.409 16.7195 39.8398 17.2373C40.2707 17.7551 40.4835 18.4251 40.4323 19.1018V19.1697C40.4323 21.3174 39.0486 22.4479 36.3924 22.4479H31.657V10.7142ZM35.7635 15.5298C37.0213 15.5298 37.517 15.0701 37.517 14.0225V13.9547C37.517 12.975 36.9695 12.5304 35.7487 12.5304H34.2023V15.5448L35.7635 15.5298ZM35.9854 20.6015C37.2729 20.6015 37.8574 20.0062 37.8574 18.9436V18.8758C37.8574 17.7906 37.2729 17.2404 35.8597 17.2404H34.2023V20.6091L35.9854 20.6015Z" fill="#1D2D35"/>
<path d="M41.1131 20.0589C41.1131 18.0544 42.9111 17.3008 45.4933 17.3008H46.4404V16.9616C46.4404 15.9443 46.137 15.3866 45.0716 15.3866C44.8991 15.3657 44.7243 15.3811 44.5578 15.4316C44.3914 15.4822 44.2369 15.5669 44.1038 15.6805C43.9707 15.7942 43.8619 15.9344 43.784 16.0925C43.7061 16.2506 43.6609 16.4233 43.651 16.5999H41.4312C41.5792 14.5652 43.1552 13.6608 45.2195 13.6608C47.2839 13.6608 48.7415 14.5124 48.7415 16.8411V22.4328H46.47V21.4004C46.1849 21.8095 45.8006 22.1363 45.3545 22.3489C44.9084 22.5616 44.4158 22.6528 43.9247 22.6137C42.4005 22.6137 41.1131 21.8601 41.1131 20.0589ZM46.4404 19.4335V18.6798H45.5377C44.1837 18.6798 43.3994 18.9813 43.3994 19.8932C43.3994 20.5186 43.7693 20.9331 44.6202 20.9331C45.6487 20.9633 46.4404 20.383 46.4404 19.4335Z" fill="#1D2D35"/>
<path d="M49.7254 19.7424H51.9007C51.9969 20.496 52.3669 20.9633 53.3805 20.9633C54.2832 20.9633 54.705 20.6166 54.705 20.0213C54.705 19.4259 54.2018 19.1848 52.9958 19.0114C50.7761 18.6648 49.8882 18.0091 49.8882 16.3361C49.8882 14.6631 51.5012 13.6608 53.2178 13.6608C55.0897 13.6608 56.4881 14.3542 56.6953 16.3211H54.557C54.4312 15.6127 54.039 15.2886 53.2399 15.2886C52.4409 15.2886 52.0487 15.6504 52.0487 16.1703C52.0487 16.6903 52.4483 16.9239 53.6691 17.1048C55.7778 17.4138 56.9395 17.9564 56.9395 19.7952C56.9395 21.634 55.6224 22.6137 53.3953 22.6137C51.1682 22.6137 49.8068 21.5963 49.7254 19.7424Z" fill="#1D2D35"/>
<path d="M57.5388 18.2503V18.1222C57.5107 17.5332 57.6031 16.9447 57.81 16.3941C58.0169 15.8434 58.3339 15.3424 58.7408 14.923C59.1477 14.5036 59.6357 14.1749 60.1739 13.9576C60.7121 13.7403 61.2887 13.6392 61.8672 13.6608C64.0426 13.6608 65.9737 14.957 65.9737 18.0242V18.6798H59.9287C59.9879 20.1041 60.75 20.9406 62.0152 20.9406C63.0955 20.9406 63.6282 20.4659 63.7762 19.7424H65.9959C65.7221 21.5963 64.2719 22.6287 61.9708 22.6287C59.3886 22.6136 57.5388 20.9934 57.5388 18.2503ZM63.7022 17.2178C63.6282 15.9216 62.9771 15.3338 61.8672 15.3338C61.3676 15.3314 60.8865 15.5264 60.525 15.8777C60.1635 16.229 59.9497 16.7094 59.9287 17.2178H63.7022Z" fill="#1D2D35"/>
<path d="M66.5878 18.2502V18.1221C66.5596 17.5318 66.6524 16.942 66.8602 16.3903C67.068 15.8385 67.3863 15.3369 67.7948 14.9172C68.2033 14.4976 68.6932 14.1691 69.2331 13.9528C69.7731 13.7365 70.3513 13.637 70.9311 13.6607C72.8844 13.6607 74.6824 14.5274 74.8969 16.9917H72.6772C72.6625 16.7802 72.6061 16.5738 72.5115 16.3849C72.4169 16.196 72.286 16.0284 72.1266 15.892C71.9672 15.7557 71.7825 15.6533 71.5835 15.5911C71.3844 15.5288 71.1752 15.508 70.9681 15.5297C69.762 15.5297 68.9555 16.4491 68.9555 18.0919V18.2201C68.9555 19.9458 69.6954 20.8275 71.0199 20.8275C71.2452 20.8407 71.4709 20.8081 71.6837 20.7316C71.8966 20.6552 72.0924 20.5363 72.2597 20.382C72.427 20.2277 72.5625 20.0411 72.6583 19.8329C72.7542 19.6248 72.8084 19.3993 72.8178 19.1696H74.9265C74.8008 21.2043 73.3506 22.6136 70.9015 22.6136C68.4524 22.6136 66.5878 21.0536 66.5878 18.2502Z" fill="#1D2D35"/>
<path d="M75.4668 20.0589C75.4668 18.0543 77.2648 17.3007 79.8396 17.3007H80.7941V16.9616C80.7941 15.9442 80.4833 15.3866 79.4253 15.3866C79.2517 15.3635 79.0753 15.3771 78.9071 15.4267C78.7389 15.4762 78.5825 15.5605 78.4478 15.6744C78.3131 15.7883 78.2029 15.9293 78.1241 16.0885C78.0453 16.2477 77.9996 16.4218 77.9899 16.5999H75.7702C75.9181 14.5651 77.4941 13.6608 79.5511 13.6608C81.608 13.6608 83.0804 14.5124 83.0804 16.841V22.4328H80.8089V21.4003C80.5238 21.8094 80.1395 22.1363 79.6934 22.3489C79.2473 22.5616 78.7547 22.6528 78.2636 22.6136C76.7838 22.6136 75.4668 21.86 75.4668 20.0589ZM80.7941 19.4334V18.6798H79.9062C78.5522 18.6798 77.7605 18.9813 77.7605 19.8931C77.7605 20.5186 78.1378 20.9331 78.9887 20.9331C80.032 20.9633 80.8237 20.383 80.8237 19.4334H80.7941Z" fill="#1D2D35"/>
<path d="M84.7228 13.8266H87.0535V15.1378C87.3076 14.672 87.6816 14.2854 88.1353 14.0199C88.589 13.7543 89.1052 13.6197 89.6284 13.6306C90.1277 13.59 90.6265 13.7147 91.0505 13.9863C91.4745 14.2579 91.801 14.6619 91.9812 15.1378C92.292 14.6651 92.7143 14.2794 93.2094 14.0161C93.7045 13.7528 94.2566 13.6202 94.8151 13.6306C96.3763 13.6306 97.5823 14.6329 97.5823 16.9088V22.4026H95.2664V17.2027C95.2664 16.1025 94.7855 15.6126 93.942 15.6126C93.7176 15.6027 93.4938 15.6422 93.2857 15.7284C93.0777 15.8146 92.8904 15.9455 92.7366 16.1122C92.5827 16.2789 92.466 16.4774 92.3944 16.6942C92.3228 16.911 92.298 17.141 92.3216 17.3685V22.4327H89.9983V17.2027C89.9983 16.1025 89.5026 15.6126 88.6813 15.6126C88.4563 15.6016 88.2316 15.6402 88.0227 15.7259C87.8137 15.8116 87.6255 15.9424 87.4708 16.1092C87.3162 16.276 87.1988 16.475 87.1268 16.6923C87.0547 16.9097 87.0298 17.1404 87.0535 17.3685V22.4327H84.7228V13.8266Z" fill="#1D2D35"/>
<path d="M99.1807 13.8266H101.519V15.1755C101.797 14.7037 102.191 14.3134 102.662 14.0427C103.133 13.772 103.664 13.63 104.205 13.6306C106.269 13.6306 107.904 15.1906 107.904 18.0242V18.1598C107.904 20.9934 106.328 22.5835 104.205 22.5835C103.664 22.606 103.129 22.4775 102.655 22.2118C102.182 21.9461 101.789 21.5534 101.519 21.0763V25.3567H99.1807V13.8266ZM105.507 18.0468C105.507 16.3059 104.671 15.4544 103.494 15.4544C102.318 15.4544 101.437 16.321 101.437 18.0468V18.1749C101.437 19.8931 102.244 20.7296 103.517 20.7296C104.789 20.7296 105.507 19.8554 105.507 18.205V18.0468Z" fill="#1D2D35"/>
<path fill-rule="evenodd" clip-rule="evenodd" d="M14.3582 6.61838C7.79266 6.61838 4.36867 12.2825 2.45158 17.8185C2.21984 18.4878 1.49932 18.8389 0.842267 18.6029C0.372311 18.4341 0.0621064 18.0106 0.00834487 17.5382C-0.0130587 17.3501 0.00618399 17.1543 0.0721745 16.9638C2.01738 11.3465 5.99243 4.04858 14.3582 4.04858C18.7309 4.04858 21.8608 6.99501 23.885 10.5348C25.9146 14.0838 26.9966 18.4784 27.2405 22.0265C27.258 22.2816 27.2005 22.5361 27.0752 22.7577C25.9029 24.8303 23.9526 26.181 21.7295 27.0083C19.5119 27.8335 16.9432 28.1706 14.3683 28.1715C12.1807 28.2062 10.0114 27.7603 8.00817 26.8641C6.0018 25.9664 4.20935 24.6381 2.75333 22.97C2.44359 22.6151 2.35124 22.1152 2.51319 21.6699L2.51414 21.6673L2.51595 21.6624L2.52212 21.6456L2.54446 21.5856C2.56371 21.5342 2.59163 21.4606 2.62761 21.3679C2.6995 21.1825 2.80386 20.9201 2.93579 20.6061C3.1985 19.9808 3.57592 19.1382 4.02929 18.2873C4.4767 17.4477 5.02687 16.5451 5.64557 15.8339C6.20959 15.1856 7.08629 14.3958 8.20842 14.3881L8.21697 14.388C9.00989 14.388 9.66123 14.7578 10.1301 15.1133C10.6027 15.4716 11.0318 15.9269 11.3758 16.2976C11.4152 16.3402 11.4536 16.3816 11.4909 16.4219C11.8112 16.7678 12.0562 17.0323 12.2889 17.2304C12.315 17.2527 12.3391 17.2723 12.361 17.2896C12.4367 17.2108 12.527 17.1076 12.6309 16.9763C13.0007 16.5095 13.416 15.8518 13.8179 15.1477C14.2145 14.4529 14.5754 13.753 14.8386 13.2236C14.9697 12.9598 15.0755 12.7404 15.1482 12.5878C15.1845 12.5115 15.2125 12.4521 15.2311 12.4122L15.2519 12.3675L15.2569 12.3568L15.2579 12.3545C15.5537 11.7121 16.3049 11.4351 16.9357 11.7363C17.5666 12.0374 17.8383 12.8025 17.5426 13.445L17.5398 13.4509L17.5333 13.4651L17.509 13.5172C17.488 13.5621 17.4575 13.6269 17.4185 13.7089C17.3405 13.8728 17.2282 14.1056 17.0896 14.3844C16.8133 14.9402 16.4284 15.6872 15.9991 16.4393C15.5751 17.1822 15.0844 17.9714 14.5947 18.5897C14.3519 18.8964 14.0766 19.2031 13.7789 19.4442C13.5158 19.6574 13.0516 19.9723 12.4566 19.9723C11.6698 19.9723 11.0499 19.5248 10.671 19.2023C10.3139 18.8984 9.95717 18.5121 9.65752 18.1876C9.61796 18.1448 9.57941 18.103 9.54198 18.0627C9.18671 17.6798 8.89633 17.3815 8.62347 17.1746C8.38432 16.9933 8.26223 16.9635 8.22716 16.9587C8.22716 16.9587 8.22464 16.9597 8.22243 16.9605C8.18386 16.9743 7.95213 17.0575 7.53395 17.5382C7.10037 18.0366 6.65676 18.7438 6.2468 19.5132C5.84281 20.2713 5.49929 21.0366 5.25539 21.6171C5.22397 21.6919 5.19428 21.7634 5.16643 21.8312C6.27671 22.958 7.58386 23.8674 9.02292 24.5113C10.6968 25.2602 12.5096 25.6322 14.3376 25.6019L14.3582 25.6017C16.7447 25.6017 19.0036 25.2867 20.8637 24.5945C22.5749 23.9577 23.8803 23.0296 24.6917 21.7975C24.4167 18.6398 23.4292 14.8436 21.7048 11.8281C19.9 8.67212 17.451 6.61838 14.3582 6.61838ZM12.1536 17.4722C12.1536 17.4722 12.1591 17.4679 12.1697 17.4624C12.1588 17.4699 12.1536 17.4722 12.1536 17.4722Z" fill="#1D2D35"/>
</svg>
