<svg width="108" height="25" viewBox="0 0 108 25" fill="none" xmlns="http://www.w3.org/2000/svg">
<path d="M31.657 6.71422H36.1852C38.6935 6.71422 39.9957 7.76173 39.9957 9.72864V9.82661C40.0315 10.403 39.8629 10.9733 39.5208 11.4338C39.1786 11.8944 38.6855 12.2145 38.1312 12.3361C38.795 12.3956 39.409 12.7195 39.8398 13.2373C40.2707 13.7551 40.4835 14.4251 40.4323 15.1018V15.1697C40.4323 17.3174 39.0486 18.4479 36.3924 18.4479H31.657V6.71422ZM35.7635 11.5298C37.0213 11.5298 37.517 11.0701 37.517 10.0225V9.95473C37.517 8.97504 36.9695 8.53041 35.7487 8.53041H34.2023V11.5448L35.7635 11.5298ZM35.9854 16.6015C37.2729 16.6015 37.8574 16.0062 37.8574 14.9436V14.8758C37.8574 13.7906 37.2729 13.2404 35.8597 13.2404H34.2023V16.6091L35.9854 16.6015Z" fill="#1D2D35"/>
<path d="M41.1131 16.0589C41.1131 14.0544 42.9111 13.3008 45.4933 13.3008H46.4404V12.9616C46.4404 11.9443 46.137 11.3866 45.0716 11.3866C44.8991 11.3657 44.7243 11.3811 44.5578 11.4316C44.3914 11.4822 44.2369 11.5669 44.1038 11.6805C43.9707 11.7942 43.8619 11.9344 43.784 12.0925C43.7061 12.2506 43.6609 12.4233 43.651 12.5999H41.4312C41.5792 10.5652 43.1552 9.66084 45.2195 9.66084C47.2839 9.66084 48.7415 10.5124 48.7415 12.8411V18.4328H46.47V17.4004C46.1849 17.8095 45.8006 18.1363 45.3545 18.3489C44.9084 18.5616 44.4158 18.6528 43.9247 18.6137C42.4005 18.6137 41.1131 17.8601 41.1131 16.0589ZM46.4404 15.4335V14.6798H45.5377C44.1837 14.6798 43.3994 14.9813 43.3994 15.8932C43.3994 16.5186 43.7693 16.9331 44.6202 16.9331C45.6487 16.9633 46.4404 16.383 46.4404 15.4335Z" fill="#1D2D35"/>
<path d="M49.7254 15.7424H51.9007C51.9969 16.496 52.3669 16.9633 53.3805 16.9633C54.2832 16.9633 54.705 16.6166 54.705 16.0213C54.705 15.4259 54.2018 15.1848 52.9958 15.0114C50.7761 14.6648 49.8882 14.0091 49.8882 12.3361C49.8882 10.6631 51.5012 9.66084 53.2178 9.66084C55.0897 9.66084 56.4881 10.3542 56.6953 12.3211H54.557C54.4312 11.6127 54.039 11.2886 53.2399 11.2886C52.4409 11.2886 52.0487 11.6504 52.0487 12.1703C52.0487 12.6903 52.4483 12.9239 53.6691 13.1048C55.7778 13.4138 56.9395 13.9564 56.9395 15.7952C56.9395 17.634 55.6224 18.6137 53.3953 18.6137C51.1682 18.6137 49.8068 17.5963 49.7254 15.7424Z" fill="#1D2D35"/>
<path d="M57.5388 14.2503V14.1222C57.5107 13.5332 57.6031 12.9447 57.81 12.3941C58.0169 11.8434 58.3339 11.3424 58.7408 10.923C59.1477 10.5036 59.6357 10.1749 60.1739 9.95758C60.7121 9.74031 61.2887 9.63925 61.8672 9.66081C64.0426 9.66081 65.9737 10.957 65.9737 14.0242V14.6798H59.9287C59.9879 16.1041 60.75 16.9406 62.0152 16.9406C63.0955 16.9406 63.6282 16.4659 63.7762 15.7424H65.9959C65.7221 17.5963 64.2719 18.6287 61.9708 18.6287C59.3886 18.6136 57.5388 16.9934 57.5388 14.2503ZM63.7022 13.2178C63.6282 11.9216 62.9771 11.3338 61.8672 11.3338C61.3676 11.3314 60.8865 11.5264 60.525 11.8777C60.1635 12.229 59.9497 12.7094 59.9287 13.2178H63.7022Z" fill="#1D2D35"/>
<path d="M66.5878 14.2502V14.1221C66.5596 13.5318 66.6524 12.942 66.8602 12.3903C67.068 11.8385 67.3863 11.3369 67.7948 10.9172C68.2033 10.4976 68.6932 10.1691 69.2331 9.95283C69.7731 9.73651 70.3513 9.63704 70.9311 9.66075C72.8844 9.66075 74.6824 10.5274 74.8969 12.9917H72.6772C72.6625 12.7802 72.6061 12.5738 72.5115 12.3849C72.4169 12.196 72.286 12.0284 72.1266 11.892C71.9672 11.7557 71.7825 11.6533 71.5835 11.5911C71.3844 11.5288 71.1752 11.508 70.9681 11.5297C69.762 11.5297 68.9555 12.4491 68.9555 14.0919V14.2201C68.9555 15.9458 69.6954 16.8275 71.0199 16.8275C71.2452 16.8407 71.4709 16.8081 71.6837 16.7316C71.8966 16.6552 72.0924 16.5363 72.2597 16.382C72.427 16.2277 72.5625 16.0411 72.6583 15.8329C72.7542 15.6248 72.8084 15.3993 72.8178 15.1696H74.9265C74.8008 17.2043 73.3506 18.6136 70.9015 18.6136C68.4524 18.6136 66.5878 17.0536 66.5878 14.2502Z" fill="#1D2D35"/>
<path d="M75.4668 16.0589C75.4668 14.0543 77.2648 13.3007 79.8396 13.3007H80.7941V12.9616C80.7941 11.9442 80.4833 11.3866 79.4253 11.3866C79.2517 11.3635 79.0753 11.3771 78.9071 11.4267C78.7389 11.4762 78.5825 11.5605 78.4478 11.6744C78.3131 11.7883 78.2029 11.9293 78.1241 12.0885C78.0453 12.2477 77.9996 12.4218 77.9899 12.5999H75.7702C75.9181 10.5651 77.4941 9.66082 79.5511 9.66082C81.608 9.66082 83.0804 10.5124 83.0804 12.841V18.4328H80.8089V17.4003C80.5238 17.8094 80.1395 18.1363 79.6934 18.3489C79.2473 18.5616 78.7547 18.6528 78.2636 18.6136C76.7838 18.6136 75.4668 17.86 75.4668 16.0589ZM80.7941 15.4334V14.6798H79.9062C78.5522 14.6798 77.7605 14.9813 77.7605 15.8931C77.7605 16.5186 78.1378 16.9331 78.9887 16.9331C80.032 16.9633 80.8237 16.383 80.8237 15.4334H80.7941Z" fill="#1D2D35"/>
<path d="M84.7228 9.82658H87.0535V11.1378C87.3076 10.672 87.6816 10.2854 88.1353 10.0199C88.589 9.75431 89.1052 9.61974 89.6284 9.63064C90.1277 9.58996 90.6265 9.71472 91.0505 9.98633C91.4745 10.2579 91.801 10.6619 91.9812 11.1378C92.292 10.6651 92.7143 10.2794 93.2094 10.0161C93.7045 9.75277 94.2566 9.62023 94.8151 9.63064C96.3763 9.63064 97.5823 10.6329 97.5823 12.9088V18.4026H95.2664V13.2027C95.2664 12.1025 94.7855 11.6126 93.942 11.6126C93.7176 11.6027 93.4938 11.6422 93.2857 11.7284C93.0777 11.8146 92.8904 11.9455 92.7366 12.1122C92.5827 12.2789 92.466 12.4774 92.3944 12.6942C92.3228 12.911 92.298 13.141 92.3216 13.3685V18.4327H89.9983V13.2027C89.9983 12.1025 89.5026 11.6126 88.6813 11.6126C88.4563 11.6016 88.2316 11.6402 88.0227 11.7259C87.8137 11.8116 87.6255 11.9424 87.4708 12.1092C87.3162 12.276 87.1988 12.475 87.1268 12.6923C87.0547 12.9097 87.0298 13.1404 87.0535 13.3685V18.4327H84.7228V9.82658Z" fill="#1D2D35"/>
<path d="M99.1807 9.82659H101.519V11.1755C101.797 10.7037 102.191 10.3134 102.662 10.0427C103.133 9.77195 103.664 9.63 104.205 9.63065C106.269 9.63065 107.904 11.1906 107.904 14.0242V14.1598C107.904 16.9934 106.328 18.5835 104.205 18.5835C103.664 18.606 103.129 18.4775 102.655 18.2118C102.182 17.9461 101.789 17.5534 101.519 17.0763V21.3567H99.1807V9.82659ZM105.507 14.0468C105.507 12.3059 104.671 11.4544 103.494 11.4544C102.318 11.4544 101.437 12.321 101.437 14.0468V14.1749C101.437 15.8931 102.244 16.7296 103.517 16.7296C104.789 16.7296 105.507 15.8554 105.507 14.205V14.0468Z" fill="#1D2D35"/>
<path fill-rule="evenodd" clip-rule="evenodd" d="M14.3582 2.61838C7.79266 2.61838 4.36867 8.28246 2.45158 13.8185C2.21984 14.4878 1.49932 14.8389 0.842267 14.6029C0.372311 14.4341 0.0621064 14.0106 0.00834487 13.5382C-0.0130587 13.3501 0.00618399 13.1543 0.0721745 12.9638C2.01738 7.34651 5.99243 0.048584 14.3582 0.048584C18.7309 0.048584 21.8608 2.99501 23.885 6.53477C25.9146 10.0838 26.9966 14.4784 27.2405 18.0265C27.258 18.2816 27.2005 18.5361 27.0752 18.7577C25.9029 20.8303 23.9526 22.181 21.7295 23.0083C19.5119 23.8335 16.9432 24.1706 14.3683 24.1715C12.1807 24.2062 10.0114 23.7603 8.00817 22.8641C6.0018 21.9664 4.20935 20.6381 2.75333 18.97C2.44359 18.6151 2.35124 18.1152 2.51319 17.6699L2.51414 17.6673L2.51595 17.6624L2.52212 17.6456L2.54446 17.5856C2.56371 17.5342 2.59163 17.4606 2.62761 17.3679C2.6995 17.1825 2.80386 16.9201 2.93579 16.6061C3.1985 15.9808 3.57592 15.1382 4.02929 14.2873C4.4767 13.4477 5.02687 12.5451 5.64557 11.8339C6.20959 11.1856 7.08629 10.3958 8.20842 10.3881L8.21697 10.388C9.00989 10.388 9.66123 10.7578 10.1301 11.1133C10.6027 11.4716 11.0318 11.9269 11.3758 12.2976C11.4152 12.3402 11.4536 12.3816 11.4909 12.4219C11.8112 12.7678 12.0562 13.0323 12.2889 13.2304C12.315 13.2527 12.3391 13.2723 12.361 13.2896C12.4367 13.2108 12.527 13.1076 12.6309 12.9763C13.0007 12.5095 13.416 11.8518 13.8179 11.1477C14.2145 10.4529 14.5754 9.75301 14.8386 9.22361C14.9697 8.95982 15.0755 8.74043 15.1482 8.58781C15.1845 8.51154 15.2125 8.45206 15.2311 8.41219L15.2519 8.36747L15.2569 8.35681L15.2579 8.35453C15.5537 7.71209 16.3049 7.43509 16.9357 7.73625C17.5666 8.03744 17.8383 8.80249 17.5426 9.44503L17.5398 9.45093L17.5333 9.46509L17.509 9.51716C17.488 9.56207 17.4575 9.62694 17.4185 9.70892C17.3405 9.87282 17.2282 10.1056 17.0896 10.3844C16.8133 10.9402 16.4284 11.6872 15.9991 12.4393C15.5751 13.1822 15.0844 13.9714 14.5947 14.5897C14.3519 14.8964 14.0766 15.2031 13.7789 15.4442C13.5158 15.6574 13.0516 15.9723 12.4566 15.9723C11.6698 15.9723 11.0499 15.5248 10.671 15.2023C10.3139 14.8984 9.95717 14.5121 9.65752 14.1876C9.61796 14.1448 9.57941 14.103 9.54198 14.0627C9.18671 13.6798 8.89633 13.3815 8.62347 13.1746C8.38432 12.9933 8.26223 12.9635 8.22716 12.9587C8.22716 12.9587 8.22464 12.9597 8.22243 12.9605C8.18386 12.9743 7.95213 13.0575 7.53395 13.5382C7.10037 14.0366 6.65676 14.7438 6.2468 15.5132C5.84281 16.2713 5.49929 17.0366 5.25539 17.6171C5.22397 17.6919 5.19428 17.7634 5.16643 17.8312C6.27671 18.958 7.58386 19.8674 9.02292 20.5113C10.6968 21.2602 12.5096 21.6322 14.3376 21.6019L14.3582 21.6017C16.7447 21.6017 19.0036 21.2867 20.8637 20.5945C22.5749 19.9577 23.8803 19.0296 24.6917 17.7975C24.4167 14.6398 23.4292 10.8436 21.7048 7.82814C19.9 4.67212 17.451 2.61838 14.3582 2.61838ZM12.1536 13.4722C12.1536 13.4722 12.1591 13.4679 12.1697 13.4624C12.1588 13.4699 12.1536 13.4722 12.1536 13.4722Z" fill="#1D2D35"/>
</svg>
